<?xml version="1.0" encoding="UTF-8"?>
<svg xmlns="http://www.w3.org/2000/svg" xmlns:xlink="http://www.w3.org/1999/xlink" viewBox="0 0 36 37">
<defs>
<clipPath id="clip-0">
<path clip-rule="nonzero" d="M 6 6 L 33 6 L 33 33.75 L 6 33.75 Z M 6 6 "/>
</clipPath>
</defs>
<g clip-path="url(#clip-0)">
<path fill-rule="nonzero" fill="rgb(7.839966%, 57.649231%, 93.328857%)" fill-opacity="1" d="M 32.3125 15.574219 L 32.3125 27.355469 C 32.3125 30.8125 29.503906 33.652344 26.003906 33.652344 L 12.957031 33.652344 C 9.496094 33.652344 6.6875 30.847656 6.6875 27.355469 L 6.6875 12.890625 C 6.6875 9.433594 9.496094 6.632812 12.957031 6.632812 L 23.308594 6.632812 Z M 32.3125 15.574219 "/>
</g>
<path fill-rule="nonzero" fill="rgb(95.689392%, 95.689392%, 95.689392%)" fill-opacity="1" d="M 12.535156 16.863281 C 12.535156 17.554688 13.113281 18.128906 13.804688 18.128906 L 20.152344 18.128906 C 20.84375 18.128906 21.421875 17.554688 21.421875 16.863281 C 21.421875 16.171875 20.84375 15.597656 20.152344 15.597656 L 13.804688 15.597656 C 13.074219 15.597656 12.535156 16.132812 12.535156 16.863281 Z M 12.535156 16.863281 "/>
<path fill-rule="nonzero" fill="rgb(95.689392%, 95.689392%, 95.689392%)" fill-opacity="1" d="M 12.535156 23.386719 C 12.535156 24.074219 13.113281 24.652344 13.804688 24.652344 L 24.421875 24.652344 C 25.117188 24.652344 25.695312 24.074219 25.695312 23.386719 C 25.695312 22.695312 25.117188 22.117188 24.421875 22.117188 L 13.804688 22.117188 C 13.074219 22.117188 12.535156 22.695312 12.535156 23.386719 Z M 12.535156 23.386719 "/>
<path fill-rule="nonzero" fill="rgb(4.708862%, 3.919983%, 33.329773%)" fill-opacity="1" d="M 32.273438 15.441406 L 27.15625 15.441406 C 25.039062 15.441406 23.308594 13.714844 23.308594 11.605469 L 23.308594 6.5 Z M 32.273438 15.441406 "/>
</svg>
